<svg width="1039" height="165" viewBox="0 0 1039 165" fill="none" xmlns="http://www.w3.org/2000/svg">
<path d="M894.332 151C893.843 151 893.451 150.9 893.06 150.9" stroke="#F0E0E0" stroke-width="3" stroke-miterlimit="10"/>
<path d="M824.81 147.8L780.649 146.2L775.557 146L697.222 144L683.514 143.8H682.241L546.428 142C546.428 142 545.057 142 542.511 142C532.915 142 507.064 142 477.591 142C463.295 142 448.215 142 433.723 142C393.087 142 356.857 142 356.465 142C355.976 142 336.686 141.8 317.592 141.5C298.693 141.3 280.089 141 280.089 141C280.089 141 200.677 138.9 152.305 144.1C142.807 145.1 134.582 146.4 128.315 148C119.404 150.3 107.85 151.8 95.3164 152.8C53.8969 156 2 153 2 153L4.93756 82L20.6045 80L50.5676 82H50.9593" stroke="#F0E0E0" stroke-width="3" stroke-miterlimit="10"/>
<path d="M684.982 60.1L783.391 64L780.649 146.2L683.514 144L684.982 60.1ZM684.982 60.1L685.472 28L544.469 25L542.511 142" stroke="#F0E0E0" stroke-width="3" stroke-miterlimit="10"/>
<path d="M477.591 142L478.864 92H542.511" stroke="#F0E0E0" stroke-width="3" stroke-miterlimit="10"/>
<path d="M433.724 142L438.718 27L324.153 34L322.685 58.6L317.593 141.5" stroke="#F0E0E0" stroke-width="3" stroke-miterlimit="10"/>
<path d="M489.342 88L444.985 67.8V82.1L478.864 95V92H489.244L489.342 88ZM489.342 88V87L489.44 80V78L489.538 69.1L489.635 61L438.718 27" stroke="#F0E0E0" stroke-width="3" stroke-miterlimit="10"/>
<path d="M152.305 144.1L152.598 129.4L152.99 107.6L153.088 102L153.186 93.1L153.284 86.5L153.48 77.7L153.578 70.6L153.773 57L231.129 43L307.506 59L322.683 58.6" stroke="#F0E0E0" stroke-width="3" stroke-miterlimit="10"/>
<path d="M227.409 140.6L231.13 43" stroke="#F0E0E0" stroke-width="3" stroke-miterlimit="10"/>
<path d="M307.507 59L304.178 141.3" stroke="#F0E0E0" stroke-width="3" stroke-miterlimit="10"/>
<path d="M20.6039 80L18.6455 148H47.0419L50.567 82L50.9587 74L95.022 68L153.577 70.6" stroke="#F0E0E0" stroke-width="3" stroke-miterlimit="10"/>
<path d="M95.3162 152.8L95.0225 68" stroke="#F0E0E0" stroke-width="3" stroke-miterlimit="10"/>
<path d="M827.454 39L783.391 64" stroke="#F0E0E0" stroke-width="3" stroke-miterlimit="10"/>
<path d="M1017.42 70.9996V149C1017.42 149 1013.11 148.7 1006.74 148.1C1003.61 147.9 999.889 147.5 996.07 147.2C992.643 146.9 989.02 146.6 985.299 146.3C981.578 146 977.955 145.7 974.43 145.3C970.514 144.9 966.793 144.6 963.659 144.3C963.463 144.3 963.366 144.3 963.268 144.3C957.588 143.7 953.77 143.2 953.77 143C953.77 142.7 953.965 136.4 954.161 127.3V127.2C954.259 122.2 954.455 116.4 954.553 110.4C954.651 105.2 954.847 99.7996 954.945 94.4996C954.945 94.2996 954.945 94.0996 954.945 93.8996C955.042 88.0996 955.238 82.4996 955.336 77.5996C955.532 67.3996 955.728 60.0996 955.728 60.0996L965.422 61.7996H965.618L975.997 63.6996L986.866 65.5996L997.539 67.4996L1007.53 69.2996L1017.42 70.9996Z" stroke="#F0E0E0" stroke-width="3" stroke-miterlimit="10"/>
<path d="M997.539 67.5L997.245 83.4L996.952 99.8L996.756 115.2L996.266 132.2L996.07 147.3" stroke="#F0E0E0" stroke-width="3" stroke-miterlimit="10"/>
<path d="M985.299 146.4L985.593 130.9L985.984 113.9L986.278 98.3996L986.572 81.8996L986.964 65.5996" stroke="#F0E0E0" stroke-width="3" stroke-miterlimit="10"/>
<path d="M1006.74 148.1L1006.94 133.4L1007.04 116.4L1007.23 101.1L1007.52 84.8998V69.2998" stroke="#F0E0E0" stroke-width="3" stroke-miterlimit="10"/>
<path d="M975.997 63.5996L975.704 80.3996L975.41 96.9996L975.018 112.7L974.724 129.7L974.431 145.4" stroke="#F0E0E0" stroke-width="3" stroke-miterlimit="10"/>
<path d="M963.659 144.4C963.757 140.7 963.855 135.1 963.953 128.5C964.051 123.3 964.149 117.5 964.345 111.5C964.442 106.3 964.54 100.9 964.638 95.6998C964.736 89.7998 964.932 84.0998 965.03 78.8998C965.226 71.8998 965.324 65.8998 965.422 61.7998" stroke="#F0E0E0" stroke-width="3" stroke-miterlimit="10"/>
<path d="M954.945 94.4004L964.737 95.6004L975.41 97.0004L986.279 98.4004L996.952 99.8004L1007.23 101.1L1017.42 102.4" stroke="#F0E0E0" stroke-width="3" stroke-miterlimit="10"/>
<path d="M1017.42 86.3L1007.53 84.9L997.245 83.4L986.572 81.9L975.703 80.4L965.03 78.9L955.336 77.5" stroke="#F0E0E0" stroke-width="3" stroke-miterlimit="10"/>
<path d="M1017.42 134.7L1006.94 133.4L996.265 132.2L985.592 130.9L974.723 129.7L963.952 128.4L954.16 127.3" stroke="#F0E0E0" stroke-width="3" stroke-miterlimit="10"/>
<path d="M1017.42 117.5L1007.04 116.4L996.756 115.2L985.985 113.9L975.018 112.7L964.443 111.4L954.651 110.3" stroke="#F0E0E0" stroke-width="3" stroke-miterlimit="10"/>
<path d="M948.873 57L945.935 156C926.939 154.2 906.964 152.2 895.116 151L894.332 150.9L893.059 150.8L889.632 150.5C886.205 150.2 884.247 150 884.247 150L824.81 147.8C824.516 148 827.454 39 827.454 39L871.321 45.5L899.228 49.6L926.547 53.6L948.873 57Z" stroke="#F0E0E0" stroke-width="3" stroke-miterlimit="10"/>
<path d="M928.311 3L926.548 53.7L899.229 49.7L871.322 45.6L871.518 29.1C872.497 27 928.311 3 928.311 3Z" stroke="#F0E0E0" stroke-width="3" stroke-miterlimit="10"/>
<path d="M876.609 149L882.288 54L895.605 55.6L898.935 56L889.632 150.5" stroke="#F0E0E0" stroke-width="3" stroke-miterlimit="10"/>
<path d="M1037 28L1035.04 163C1035.04 163 1013.5 162 989.02 160C980.011 159.3 963.365 157.7 945.936 156L948.873 57L926.548 53.7L928.31 3L1037 28Z" stroke="#F0E0E0" stroke-width="3" stroke-miterlimit="10"/>
<path d="M698.202 69.3V81.3L689.39 81V69C689.585 69 692.915 69.1 698.202 69.3Z" stroke="#F0E0E0" stroke-width="3" stroke-miterlimit="10"/>
<path d="M704.076 69.5C706.524 69.6 709.168 69.7 711.91 69.8V81.8L704.076 81.5V69.5Z" stroke="#F0E0E0" stroke-width="3" stroke-miterlimit="10"/>
<path d="M729.536 70.3996V82.3996L720.723 82.0996V70.0996C723.563 70.1996 726.599 70.2996 729.536 70.3996Z" stroke="#F0E0E0" stroke-width="3" stroke-miterlimit="10"/>
<path d="M743.243 70.8V82.8L735.41 82.5V70.5C738.054 70.7 740.698 70.8 743.243 70.8Z" stroke="#F0E0E0" stroke-width="3" stroke-miterlimit="10"/>
<path d="M761.848 71.5002V83.5002L753.035 83.2002V71.2002C756.169 71.3002 759.106 71.4002 761.848 71.5002Z" stroke="#F0E0E0" stroke-width="3" stroke-miterlimit="10"/>
<path d="M776.536 72.0002V84.0002L766.744 83.7002V71.7002C772.717 71.9002 776.536 72.0002 776.536 72.0002Z" stroke="#F0E0E0" stroke-width="3" stroke-miterlimit="10"/>
<path d="M766.744 83.7002V71.7002" stroke="#F0E0E0" stroke-width="3" stroke-miterlimit="10"/>
<path d="M753.035 83.2002V71.2002" stroke="#F0E0E0" stroke-width="3" stroke-miterlimit="10"/>
<path d="M761.848 83.5V71.5" stroke="#F0E0E0" stroke-width="3" stroke-miterlimit="10"/>
<path d="M735.41 82.5996V70.5996" stroke="#F0E0E0" stroke-width="3" stroke-miterlimit="10"/>
<path d="M743.244 82.8998V70.7998" stroke="#F0E0E0" stroke-width="3" stroke-miterlimit="10"/>
<path d="M720.723 82.0996V70.0996" stroke="#F0E0E0" stroke-width="3" stroke-miterlimit="10"/>
<path d="M729.536 82.4004V70.4004" stroke="#F0E0E0" stroke-width="3" stroke-miterlimit="10"/>
<path d="M704.076 69.5C704.076 72.7 704.076 78.3 704.076 81.5" stroke="#F0E0E0" stroke-width="3" stroke-miterlimit="10"/>
<path d="M711.91 81.7998V69.7998" stroke="#F0E0E0" stroke-width="3" stroke-miterlimit="10"/>
<path d="M698.202 81.2998V69.2998" stroke="#F0E0E0" stroke-width="3" stroke-miterlimit="10"/>
<path d="M698.202 89.3V101.3L689.39 101V89C689.585 89 692.915 89.1 698.202 89.3Z" stroke="#F0E0E0" stroke-width="3" stroke-miterlimit="10"/>
<path d="M704.076 89.5C706.524 89.6 709.168 89.7 711.91 89.8V101.8L704.076 101.5V89.5Z" stroke="#F0E0E0" stroke-width="3" stroke-miterlimit="10"/>
<path d="M729.536 90.3996V102.4L720.723 102.1V90.0996C723.563 90.1996 726.599 90.2996 729.536 90.3996Z" stroke="#F0E0E0" stroke-width="3" stroke-miterlimit="10"/>
<path d="M743.243 90.8V102.8L735.41 102.5V90.5C738.054 90.7 740.698 90.8 743.243 90.8Z" stroke="#F0E0E0" stroke-width="3" stroke-miterlimit="10"/>
<path d="M761.848 91.5002V103.5L753.035 103.2V91.2002C756.169 91.3002 759.106 91.4002 761.848 91.5002Z" stroke="#F0E0E0" stroke-width="3" stroke-miterlimit="10"/>
<path d="M776.536 92.0002V104L766.744 103.7V91.7002C772.717 91.9002 776.536 92.0002 776.536 92.0002Z" stroke="#F0E0E0" stroke-width="3" stroke-miterlimit="10"/>
<path d="M766.744 103.7V91.7002" stroke="#F0E0E0" stroke-width="3" stroke-miterlimit="10"/>
<path d="M753.035 103.2V91.2002" stroke="#F0E0E0" stroke-width="3" stroke-miterlimit="10"/>
<path d="M761.848 103.5V91.5" stroke="#F0E0E0" stroke-width="3" stroke-miterlimit="10"/>
<path d="M735.41 102.6V90.5996" stroke="#F0E0E0" stroke-width="3" stroke-miterlimit="10"/>
<path d="M743.244 102.9V90.7998" stroke="#F0E0E0" stroke-width="3" stroke-miterlimit="10"/>
<path d="M720.723 102.1V90.0996" stroke="#F0E0E0" stroke-width="3" stroke-miterlimit="10"/>
<path d="M729.536 102.4V90.4004" stroke="#F0E0E0" stroke-width="3" stroke-miterlimit="10"/>
<path d="M704.076 89.5C704.076 92.7 704.076 98.3 704.076 101.5" stroke="#F0E0E0" stroke-width="3" stroke-miterlimit="10"/>
<path d="M711.91 101.8V89.7998" stroke="#F0E0E0" stroke-width="3" stroke-miterlimit="10"/>
<path d="M698.202 101.3V89.2998" stroke="#F0E0E0" stroke-width="3" stroke-miterlimit="10"/>
<path d="M698.202 109.3V121.3L689.39 121V109C689.585 109 692.915 109.1 698.202 109.3Z" stroke="#F0E0E0" stroke-width="3" stroke-miterlimit="10"/>
<path d="M704.076 109.5C706.524 109.6 709.168 109.7 711.91 109.8V121.8L704.076 121.5V109.5Z" stroke="#F0E0E0" stroke-width="3" stroke-miterlimit="10"/>
<path d="M729.536 110.4V122.4L720.723 122.1V110.1C723.563 110.2 726.599 110.3 729.536 110.4Z" stroke="#F0E0E0" stroke-width="3" stroke-miterlimit="10"/>
<path d="M743.243 110.8V122.8L735.41 122.5V110.5C738.054 110.7 740.698 110.8 743.243 110.8Z" stroke="#F0E0E0" stroke-width="3" stroke-miterlimit="10"/>
<path d="M761.848 111.5V123.5L753.035 123.2V111.2C756.169 111.3 759.106 111.4 761.848 111.5Z" stroke="#F0E0E0" stroke-width="3" stroke-miterlimit="10"/>
<path d="M776.536 112V124L766.744 123.7V111.7C772.717 111.9 776.536 112 776.536 112Z" stroke="#F0E0E0" stroke-width="3" stroke-miterlimit="10"/>
<path d="M766.744 123.7V111.7" stroke="#F0E0E0" stroke-width="3" stroke-miterlimit="10"/>
<path d="M753.035 123.2V111.2" stroke="#F0E0E0" stroke-width="3" stroke-miterlimit="10"/>
<path d="M761.848 123.5V111.5" stroke="#F0E0E0" stroke-width="3" stroke-miterlimit="10"/>
<path d="M735.41 122.6V110.6" stroke="#F0E0E0" stroke-width="3" stroke-miterlimit="10"/>
<path d="M743.244 122.9V110.8" stroke="#F0E0E0" stroke-width="3" stroke-miterlimit="10"/>
<path d="M720.723 122.1V110.1" stroke="#F0E0E0" stroke-width="3" stroke-miterlimit="10"/>
<path d="M729.536 122.4V110.4" stroke="#F0E0E0" stroke-width="3" stroke-miterlimit="10"/>
<path d="M704.076 109.5C704.076 112.7 704.076 118.3 704.076 121.5" stroke="#F0E0E0" stroke-width="3" stroke-miterlimit="10"/>
<path d="M711.91 121.8V109.8" stroke="#F0E0E0" stroke-width="3" stroke-miterlimit="10"/>
<path d="M698.202 121.3V109.3" stroke="#F0E0E0" stroke-width="3" stroke-miterlimit="10"/>
<path d="M197.74 53.7998L186.773 55.6998L190.004 141.5L195.781 141.3L197.74 53.7998Z" stroke="#F0E0E0" stroke-width="3" stroke-miterlimit="10"/>
<path d="M246.307 55.6998V66.6998L236.516 64.8998L236.809 53.7998L246.307 55.6998Z" stroke="#F0E0E0" stroke-width="3" stroke-miterlimit="10"/>
<path d="M259.723 58.4998V69.3998L251.204 67.7998V56.7998L259.723 58.4998Z" stroke="#F0E0E0" stroke-width="3" stroke-miterlimit="10"/>
<path d="M273.528 61.2V71.9L264.716 70.3V59.5L273.528 61.2Z" stroke="#F0E0E0" stroke-width="3" stroke-miterlimit="10"/>
<path d="M287.237 63.7V74.3L278.425 72.7V62L287.237 63.7Z" stroke="#F0E0E0" stroke-width="3" stroke-miterlimit="10"/>
<path d="M300.75 66.2996L300.554 76.6996L292.133 75.1996V64.5996L300.75 66.2996Z" stroke="#F0E0E0" stroke-width="3" stroke-miterlimit="10"/>
<path d="M246.308 66.6992V55.6992" stroke="#F0E0E0" stroke-width="3" stroke-miterlimit="10"/>
<path d="M251.204 67.8004V56.9004" stroke="#F0E0E0" stroke-width="3" stroke-miterlimit="10"/>
<path d="M259.723 69.4V58.5" stroke="#F0E0E0" stroke-width="3" stroke-miterlimit="10"/>
<path d="M292.133 64.1992V64.5992V75.1992" stroke="#F0E0E0" stroke-width="3" stroke-miterlimit="10"/>
<path d="M246.013 74.9004V85.9004L236.221 84.1004L236.514 72.9004L246.013 74.9004Z" stroke="#F0E0E0" stroke-width="3" stroke-miterlimit="10"/>
<path d="M259.33 77.7V88.5L250.909 86.9V76L259.33 77.7Z" stroke="#F0E0E0" stroke-width="3" stroke-miterlimit="10"/>
<path d="M273.234 80.4002V91.1002L264.421 89.5002V78.7002L273.234 80.4002Z" stroke="#F0E0E0" stroke-width="3" stroke-miterlimit="10"/>
<path d="M286.942 82.8006V93.5006L278.13 91.8006V81.1006L286.942 82.8006Z" stroke="#F0E0E0" stroke-width="3" stroke-miterlimit="10"/>
<path d="M300.455 85.5008L300.259 95.9008L291.838 94.4008V83.8008L300.455 85.5008Z" stroke="#F0E0E0" stroke-width="3" stroke-miterlimit="10"/>
<path d="M246.013 85.9004V74.9004" stroke="#F0E0E0" stroke-width="3" stroke-miterlimit="10"/>
<path d="M250.909 86.9V76" stroke="#F0E0E0" stroke-width="3" stroke-miterlimit="10"/>
<path d="M259.33 88.5002V77.7002" stroke="#F0E0E0" stroke-width="3" stroke-miterlimit="10"/>
<path d="M291.838 83.3008V83.8008V94.4008" stroke="#F0E0E0" stroke-width="3" stroke-miterlimit="10"/>
<path d="M279.795 100.6V128.9H274.997V99.5996L279.795 100.6Z" stroke="#F0E0E0" stroke-width="3" stroke-miterlimit="10"/>
<path d="M284.887 101L289.685 102.2V128.9H284.887V101Z" stroke="#F0E0E0" stroke-width="3" stroke-miterlimit="10"/>
<path d="M299.477 103.7L298.89 128.9H294.777V102.5L299.477 103.7Z" stroke="#F0E0E0" stroke-width="3" stroke-miterlimit="10"/>
<path d="M237.494 95.4004L250.909 97.2004V108.5L237.494 106.9V95.4004Z" stroke="#F0E0E0" stroke-width="3" stroke-miterlimit="10"/>
<path d="M268.828 99.6V110.6L257.078 109.2V98L268.828 99.6Z" stroke="#F0E0E0" stroke-width="3" stroke-miterlimit="10"/>
<path d="M266.575 128.9L241.116 128.2V115.7L266.575 118.1V128.9Z" stroke="#F0E0E0" stroke-width="3" stroke-miterlimit="10"/>
<path d="M250.909 108.5V97.2002" stroke="#F0E0E0" stroke-width="3" stroke-miterlimit="10"/>
<path d="M257.078 109.2V98" stroke="#F0E0E0" stroke-width="3" stroke-miterlimit="10"/>
<path d="M253.846 116.9V128.6" stroke="#F0E0E0" stroke-width="3" stroke-miterlimit="10"/>
<path d="M382.903 142L387.897 35.5996H370.271V142" stroke="#F0E0E0" stroke-width="3" stroke-miterlimit="10"/>
<path d="M444.984 43.2998L489.537 69.0998L489.439 79.9998L444.984 57.7998V43.2998Z" stroke="#F0E0E0" stroke-width="3" stroke-miterlimit="10"/>
<path d="M444.984 93L467.31 100V111.8L444.984 107.3V93Z" stroke="#F0E0E0" stroke-width="3" stroke-miterlimit="10"/>
<path d="M444.984 118.4V132.5H465.645V120.3L444.984 118.4Z" stroke="#F0E0E0" stroke-width="3" stroke-miterlimit="10"/>
<path d="M478.667 102.4L472.303 100.7V132.5H477.59" stroke="#F0E0E0" stroke-width="3" stroke-miterlimit="10"/>
<path d="M506.183 122.2H486.109V135.8H506.183V122.2Z" stroke="#F0E0E0" stroke-width="3" stroke-miterlimit="10"/>
<path d="M494.139 102.4H486.109V111.8H494.139V102.4Z" stroke="#F0E0E0" stroke-width="3" stroke-miterlimit="10"/>
<path d="M506.574 102.4H498.74V111.8H506.574V102.4Z" stroke="#F0E0E0" stroke-width="3" stroke-miterlimit="10"/>
<path d="M535.264 122.2H515.19V135.8H535.264V122.2Z" stroke="#F0E0E0" stroke-width="3" stroke-miterlimit="10"/>
<path d="M523.22 102.4H515.19V111.8H523.22V102.4Z" stroke="#F0E0E0" stroke-width="3" stroke-miterlimit="10"/>
<path d="M535.753 102.4H527.92V111.8H535.753V102.4Z" stroke="#F0E0E0" stroke-width="3" stroke-miterlimit="10"/>
<path d="M698.201 128.9H689.389V135.5H698.201V128.9Z" stroke="#F0E0E0" stroke-width="3" stroke-miterlimit="10"/>
<path d="M711.91 128.9H704.076V135.5H711.91V128.9Z" stroke="#F0E0E0" stroke-width="3" stroke-miterlimit="10"/>
<path d="M718.176 144.8V131.5L743.243 132.2V145.4" stroke="#F0E0E0" stroke-width="3" stroke-miterlimit="10"/>
<path d="M761.848 132.2H753.035V138.5H761.848V132.2Z" stroke="#F0E0E0" stroke-width="3" stroke-miterlimit="10"/>
<path d="M775.557 132.2H766.744V138.5H775.557V132.2Z" stroke="#F0E0E0" stroke-width="3" stroke-miterlimit="10"/>
<path d="M604.787 142.8L606.745 32.2002H624.958V143" stroke="#F0E0E0" stroke-width="3" stroke-miterlimit="10"/>
<path d="M783.195 72.5L818.25 54V69.5L782.705 85.6" stroke="#F0E0E0" stroke-width="3" stroke-miterlimit="10"/>
<path d="M782.705 94.5998L818.25 81.2998V94.9998L783.391 107" stroke="#F0E0E0" stroke-width="3" stroke-miterlimit="10"/>
<path d="M796.121 146.2L797.296 110.5L781.727 115.1" stroke="#F0E0E0" stroke-width="3" stroke-miterlimit="10"/>
<path d="M802.093 109.5L817.074 107V121.3L802.093 122.4V109.5Z" stroke="#F0E0E0" stroke-width="3" stroke-miterlimit="10"/>
<path d="M814.626 132.2V147.4L802.093 147V132.2H814.626Z" stroke="#F0E0E0" stroke-width="3" stroke-miterlimit="10"/>
<path d="M64.6672 154.3L67.6048 76.9L74.3612 76L73.4799 153.9" stroke="#F0E0E0" stroke-width="3" stroke-miterlimit="10"/>
<path d="M50.2741 88.3004L25.9902 86.4004V93.7004L49.8824 95.7004L49.5886 101.4L25.9902 99.6004V108L49.197 109L48.9032 113.7L25.9902 112.6V120.2L48.5115 121.2" stroke="#F0E0E0" stroke-width="3" stroke-miterlimit="10"/>
<path d="M48.2171 125.9H28.4375V133.8H47.8254" stroke="#F0E0E0" stroke-width="3" stroke-miterlimit="10"/>
<path d="M108.242 76.7996V85.5996L100.408 85.4996V76.5996L108.242 76.7996Z" stroke="#F0E0E0" stroke-width="3" stroke-miterlimit="10"/>
<path d="M121.167 76.9998V85.8998L113.236 85.6998L113.138 76.7998L121.167 76.9998Z" stroke="#F0E0E0" stroke-width="3" stroke-miterlimit="10"/>
<path d="M132.918 77.2996V86.0996L126.259 85.8996V77.0996L132.918 77.2996Z" stroke="#F0E0E0" stroke-width="3" stroke-miterlimit="10"/>
<path d="M145.353 77.4998V86.2998L137.52 86.1998V77.2998L145.353 77.4998Z" stroke="#F0E0E0" stroke-width="3" stroke-miterlimit="10"/>
<path d="M153.48 77.6996L149.759 77.5996V86.3996L153.284 86.4996" stroke="#F0E0E0" stroke-width="3" stroke-miterlimit="10"/>
<path d="M108.242 92.2996V101.1L100.408 100.9V92.0996L108.242 92.2996Z" stroke="#F0E0E0" stroke-width="3" stroke-miterlimit="10"/>
<path d="M121.167 92.4998V101.3L113.235 101.2V92.2998L121.167 92.4998Z" stroke="#F0E0E0" stroke-width="3" stroke-miterlimit="10"/>
<path d="M132.918 92.6996V101.6L126.259 101.4V92.5996L132.918 92.6996Z" stroke="#F0E0E0" stroke-width="3" stroke-miterlimit="10"/>
<path d="M145.353 92.9998V101.8L137.52 101.7V92.7998L145.353 92.9998Z" stroke="#F0E0E0" stroke-width="3" stroke-miterlimit="10"/>
<path d="M153.186 93.1L153.088 102L149.759 101.9V93L153.186 93.1Z" stroke="#F0E0E0" stroke-width="3" stroke-miterlimit="10"/>
<path d="M152.991 107.6H147.214V129.4H152.599H152.991" stroke="#F0E0E0" stroke-width="3" stroke-miterlimit="10"/>
<path d="M108.634 107.9V117.7L100.408 117.8V108L108.634 107.9Z" stroke="#F0E0E0" stroke-width="3" stroke-miterlimit="10"/>
<path d="M113.235 107.9L122.538 107.7V117.4L113.235 117.6V107.9Z" stroke="#F0E0E0" stroke-width="3" stroke-miterlimit="10"/>
<path d="M137.518 107.6V117.1L127.53 117.3V107.7L137.518 107.6Z" stroke="#F0E0E0" stroke-width="3" stroke-miterlimit="10"/>
<path d="M127.53 117.3V107.7" stroke="#F0E0E0" stroke-width="3" stroke-miterlimit="10"/>
<path d="M108.633 117.7V107.9" stroke="#F0E0E0" stroke-width="3" stroke-miterlimit="10"/>
<path d="M121.166 101.4V92.5" stroke="#F0E0E0" stroke-width="3" stroke-miterlimit="10"/>
<path d="M121.166 85.9V77" stroke="#F0E0E0" stroke-width="3" stroke-miterlimit="10"/>
<path d="M132.917 101.6V92.7002" stroke="#F0E0E0" stroke-width="3" stroke-miterlimit="10"/>
<path d="M132.917 86.0998V77.2998" stroke="#F0E0E0" stroke-width="3" stroke-miterlimit="10"/>
<path d="M145.353 101.8V93" stroke="#F0E0E0" stroke-width="3" stroke-miterlimit="10"/>
<path d="M145.353 86.4V77.5" stroke="#F0E0E0" stroke-width="3" stroke-miterlimit="10"/>
<path d="M109.221 123.7L122.342 123.3V132.3L109.221 133V123.7Z" stroke="#F0E0E0" stroke-width="3" stroke-miterlimit="10"/>
<path d="M137.519 122.9V131.6L127.042 132.1V123.2L137.519 122.9Z" stroke="#F0E0E0" stroke-width="3" stroke-miterlimit="10"/>
<path d="M127.042 132.1V123.2" stroke="#F0E0E0" stroke-width="3" stroke-miterlimit="10"/>
<path d="M122.341 132.4V123.3" stroke="#F0E0E0" stroke-width="3" stroke-miterlimit="10"/>
<g filter="url(#filter0_d_2043_5756)">
<circle cx="480" cy="66" r="10" fill="#AC0404"/>
</g>
<g filter="url(#filter1_d_2043_5756)">
<circle cx="480" cy="66" r="10" fill="#AC0404"/>
</g>
<circle cx="480" cy="66" r="13" stroke="#A51212" stroke-opacity="0.8" stroke-width="2"/>
<circle cx="480" cy="66" r="18.25" stroke="#A51212" stroke-opacity="0.4" stroke-width="1.5"/>
<defs>
<filter id="filter0_d_2043_5756" x="462" y="48" width="36" height="36" filterUnits="userSpaceOnUse" color-interpolation-filters="sRGB">
<feFlood flood-opacity="0" result="BackgroundImageFix"/>
<feColorMatrix in="SourceAlpha" type="matrix" values="0 0 0 0 0 0 0 0 0 0 0 0 0 0 0 0 0 0 127 0" result="hardAlpha"/>
<feMorphology radius="1" operator="dilate" in="SourceAlpha" result="effect1_dropShadow_2043_5756"/>
<feOffset/>
<feGaussianBlur stdDeviation="3.5"/>
<feComposite in2="hardAlpha" operator="out"/>
<feColorMatrix type="matrix" values="0 0 0 0 0.954167 0 0 0 0 0.0159028 0 0 0 0 0.0159028 0 0 0 0.46 0"/>
<feBlend mode="normal" in2="BackgroundImageFix" result="effect1_dropShadow_2043_5756"/>
<feBlend mode="normal" in="SourceGraphic" in2="effect1_dropShadow_2043_5756" result="shape"/>
</filter>
<filter id="filter1_d_2043_5756" x="462" y="48" width="36" height="36" filterUnits="userSpaceOnUse" color-interpolation-filters="sRGB">
<feFlood flood-opacity="0" result="BackgroundImageFix"/>
<feColorMatrix in="SourceAlpha" type="matrix" values="0 0 0 0 0 0 0 0 0 0 0 0 0 0 0 0 0 0 127 0" result="hardAlpha"/>
<feMorphology radius="1" operator="dilate" in="SourceAlpha" result="effect1_dropShadow_2043_5756"/>
<feOffset/>
<feGaussianBlur stdDeviation="3.5"/>
<feComposite in2="hardAlpha" operator="out"/>
<feColorMatrix type="matrix" values="0 0 0 0 0.954167 0 0 0 0 0.0159028 0 0 0 0 0.0159028 0 0 0 0.46 0"/>
<feBlend mode="normal" in2="BackgroundImageFix" result="effect1_dropShadow_2043_5756"/>
<feBlend mode="normal" in="SourceGraphic" in2="effect1_dropShadow_2043_5756" result="shape"/>
</filter>
</defs>
</svg>
