<svg width="1039" height="195" viewBox="0 0 1039 195" fill="none" xmlns="http://www.w3.org/2000/svg">
<path d="M894.332 181C893.843 181 893.451 180.9 893.06 180.9" stroke="#F0E0E0" stroke-width="3" stroke-miterlimit="10"/>
<path d="M824.81 177.8L780.649 176.2L775.557 176L697.222 174L683.514 173.8H682.241L546.428 172C546.428 172 545.057 172 542.511 172C532.915 172 507.064 172 477.591 172C463.295 172 448.215 172 433.723 172C393.087 172 356.857 172 356.465 172C355.976 172 336.686 171.8 317.592 171.5C298.693 171.3 280.089 171 280.089 171C280.089 171 200.677 168.9 152.305 174.1C142.807 175.1 134.582 176.4 128.315 178C119.404 180.3 107.85 181.8 95.3164 182.8C53.8969 186 2 183 2 183L4.93756 112L20.6045 110L50.5676 112H50.9593" stroke="#F0E0E0" stroke-width="3" stroke-miterlimit="10"/>
<path d="M684.982 90.1L783.391 94L780.649 176.2L683.514 174L684.982 90.1ZM684.982 90.1L685.472 58L544.469 55L542.511 172" stroke="#F0E0E0" stroke-width="3" stroke-miterlimit="10"/>
<path d="M477.591 172L478.864 122H542.511" stroke="#F0E0E0" stroke-width="3" stroke-miterlimit="10"/>
<path d="M433.724 172L438.718 57L324.153 64L322.685 88.6L317.593 171.5" stroke="#F0E0E0" stroke-width="3" stroke-miterlimit="10"/>
<path d="M489.342 118L444.985 97.8V112.1L478.864 125V122H489.244L489.342 118ZM489.342 118V117L489.44 110V108L489.538 99.1L489.635 91L438.718 57" stroke="#F0E0E0" stroke-width="3" stroke-miterlimit="10"/>
<path d="M152.305 174.1L152.598 159.4L152.99 137.6L153.088 132L153.186 123.1L153.284 116.5L153.48 107.7L153.578 100.6L153.773 87L231.129 73L307.506 89L322.683 88.6" stroke="#F0E0E0" stroke-width="3" stroke-miterlimit="10"/>
<path d="M227.409 170.6L231.13 73" stroke="#F0E0E0" stroke-width="3" stroke-miterlimit="10"/>
<path d="M307.507 89L304.178 171.3" stroke="#F0E0E0" stroke-width="3" stroke-miterlimit="10"/>
<path d="M20.6039 110L18.6455 178H47.0419L50.567 112L50.9587 104L95.022 98L153.577 100.6" stroke="#F0E0E0" stroke-width="3" stroke-miterlimit="10"/>
<path d="M95.3162 182.8L95.0225 98" stroke="#F0E0E0" stroke-width="3" stroke-miterlimit="10"/>
<path d="M827.454 69L783.391 94" stroke="#F0E0E0" stroke-width="3" stroke-miterlimit="10"/>
<path d="M1017.42 101V179C1017.42 179 1013.11 178.7 1006.74 178.1C1003.61 177.9 999.889 177.5 996.07 177.2C992.643 176.9 989.02 176.6 985.299 176.3C981.578 176 977.955 175.7 974.43 175.3C970.514 174.9 966.793 174.6 963.659 174.3C963.463 174.3 963.366 174.3 963.268 174.3C957.588 173.7 953.77 173.2 953.77 173C953.77 172.7 953.965 166.4 954.161 157.3V157.2C954.259 152.2 954.455 146.4 954.553 140.4C954.651 135.2 954.847 129.8 954.945 124.5C954.945 124.3 954.945 124.1 954.945 123.9C955.042 118.1 955.238 112.5 955.336 107.6C955.532 97.3996 955.728 90.0996 955.728 90.0996L965.422 91.7996H965.618L975.997 93.6996L986.866 95.5996L997.539 97.4996L1007.53 99.2996L1017.42 101Z" stroke="#F0E0E0" stroke-width="3" stroke-miterlimit="10"/>
<path d="M997.539 97.5L997.245 113.4L996.952 129.8L996.756 145.2L996.266 162.2L996.07 177.3" stroke="#F0E0E0" stroke-width="3" stroke-miterlimit="10"/>
<path d="M985.299 176.4L985.593 160.9L985.984 143.9L986.278 128.4L986.572 111.9L986.964 95.5996" stroke="#F0E0E0" stroke-width="3" stroke-miterlimit="10"/>
<path d="M1006.74 178.1L1006.94 163.4L1007.04 146.4L1007.23 131.1L1007.52 114.9V99.2998" stroke="#F0E0E0" stroke-width="3" stroke-miterlimit="10"/>
<path d="M975.997 93.5996L975.704 110.4L975.41 127L975.018 142.7L974.724 159.7L974.431 175.4" stroke="#F0E0E0" stroke-width="3" stroke-miterlimit="10"/>
<path d="M963.659 174.4C963.757 170.7 963.855 165.1 963.953 158.5C964.051 153.3 964.149 147.5 964.345 141.5C964.442 136.3 964.54 130.9 964.638 125.7C964.736 119.8 964.932 114.1 965.03 108.9C965.226 101.9 965.324 95.8998 965.422 91.7998" stroke="#F0E0E0" stroke-width="3" stroke-miterlimit="10"/>
<path d="M954.945 124.4L964.737 125.6L975.41 127L986.279 128.4L996.952 129.8L1007.23 131.1L1017.42 132.4" stroke="#F0E0E0" stroke-width="3" stroke-miterlimit="10"/>
<path d="M1017.42 116.3L1007.53 114.9L997.245 113.4L986.572 111.9L975.703 110.4L965.03 108.9L955.336 107.5" stroke="#F0E0E0" stroke-width="3" stroke-miterlimit="10"/>
<path d="M1017.42 164.7L1006.94 163.4L996.265 162.2L985.592 160.9L974.723 159.7L963.952 158.4L954.16 157.3" stroke="#F0E0E0" stroke-width="3" stroke-miterlimit="10"/>
<path d="M1017.42 147.5L1007.04 146.4L996.756 145.2L985.985 143.9L975.018 142.7L964.443 141.4L954.651 140.3" stroke="#F0E0E0" stroke-width="3" stroke-miterlimit="10"/>
<path d="M948.873 87L945.935 186C926.939 184.2 906.964 182.2 895.116 181L894.332 180.9L893.059 180.8L889.632 180.5C886.205 180.2 884.247 180 884.247 180L824.81 177.8C824.516 178 827.454 69 827.454 69L871.321 75.5L899.228 79.6L926.547 83.6L948.873 87Z" stroke="#F0E0E0" stroke-width="3" stroke-miterlimit="10"/>
<path d="M928.311 33L926.548 83.7L899.229 79.7L871.322 75.6L871.518 59.1C872.497 57 928.311 33 928.311 33Z" stroke="#F0E0E0" stroke-width="3" stroke-miterlimit="10"/>
<path d="M876.609 179L882.288 84L895.605 85.6L898.935 86L889.632 180.5" stroke="#F0E0E0" stroke-width="3" stroke-miterlimit="10"/>
<path d="M1037 58L1035.04 193C1035.04 193 1013.5 192 989.02 190C980.011 189.3 963.365 187.7 945.936 186L948.873 87L926.548 83.7L928.31 33L1037 58Z" stroke="#F0E0E0" stroke-width="3" stroke-miterlimit="10"/>
<path d="M698.202 99.3V111.3L689.39 111V99C689.585 99 692.915 99.1 698.202 99.3Z" stroke="#F0E0E0" stroke-width="3" stroke-miterlimit="10"/>
<path d="M704.076 99.5C706.524 99.6 709.168 99.7 711.91 99.8V111.8L704.076 111.5V99.5Z" stroke="#F0E0E0" stroke-width="3" stroke-miterlimit="10"/>
<path d="M729.536 100.4V112.4L720.723 112.1V100.1C723.563 100.2 726.599 100.3 729.536 100.4Z" stroke="#F0E0E0" stroke-width="3" stroke-miterlimit="10"/>
<path d="M743.243 100.8V112.8L735.41 112.5V100.5C738.054 100.7 740.698 100.8 743.243 100.8Z" stroke="#F0E0E0" stroke-width="3" stroke-miterlimit="10"/>
<path d="M761.848 101.5V113.5L753.035 113.2V101.2C756.169 101.3 759.106 101.4 761.848 101.5Z" stroke="#F0E0E0" stroke-width="3" stroke-miterlimit="10"/>
<path d="M776.536 102V114L766.744 113.7V101.7C772.717 101.9 776.536 102 776.536 102Z" stroke="#F0E0E0" stroke-width="3" stroke-miterlimit="10"/>
<path d="M766.744 113.7V101.7" stroke="#F0E0E0" stroke-width="3" stroke-miterlimit="10"/>
<path d="M753.035 113.2V101.2" stroke="#F0E0E0" stroke-width="3" stroke-miterlimit="10"/>
<path d="M761.848 113.5V101.5" stroke="#F0E0E0" stroke-width="3" stroke-miterlimit="10"/>
<path d="M735.41 112.6V100.6" stroke="#F0E0E0" stroke-width="3" stroke-miterlimit="10"/>
<path d="M743.244 112.9V100.8" stroke="#F0E0E0" stroke-width="3" stroke-miterlimit="10"/>
<path d="M720.723 112.1V100.1" stroke="#F0E0E0" stroke-width="3" stroke-miterlimit="10"/>
<path d="M729.536 112.4V100.4" stroke="#F0E0E0" stroke-width="3" stroke-miterlimit="10"/>
<path d="M704.076 99.5C704.076 102.7 704.076 108.3 704.076 111.5" stroke="#F0E0E0" stroke-width="3" stroke-miterlimit="10"/>
<path d="M711.91 111.8V99.7998" stroke="#F0E0E0" stroke-width="3" stroke-miterlimit="10"/>
<path d="M698.202 111.3V99.2998" stroke="#F0E0E0" stroke-width="3" stroke-miterlimit="10"/>
<path d="M698.202 119.3V131.3L689.39 131V119C689.585 119 692.915 119.1 698.202 119.3Z" stroke="#F0E0E0" stroke-width="3" stroke-miterlimit="10"/>
<path d="M704.076 119.5C706.524 119.6 709.168 119.7 711.91 119.8V131.8L704.076 131.5V119.5Z" stroke="#F0E0E0" stroke-width="3" stroke-miterlimit="10"/>
<path d="M729.536 120.4V132.4L720.723 132.1V120.1C723.563 120.2 726.599 120.3 729.536 120.4Z" stroke="#F0E0E0" stroke-width="3" stroke-miterlimit="10"/>
<path d="M743.243 120.8V132.8L735.41 132.5V120.5C738.054 120.7 740.698 120.8 743.243 120.8Z" stroke="#F0E0E0" stroke-width="3" stroke-miterlimit="10"/>
<path d="M761.848 121.5V133.5L753.035 133.2V121.2C756.169 121.3 759.106 121.4 761.848 121.5Z" stroke="#F0E0E0" stroke-width="3" stroke-miterlimit="10"/>
<path d="M776.536 122V134L766.744 133.7V121.7C772.717 121.9 776.536 122 776.536 122Z" stroke="#F0E0E0" stroke-width="3" stroke-miterlimit="10"/>
<path d="M766.744 133.7V121.7" stroke="#F0E0E0" stroke-width="3" stroke-miterlimit="10"/>
<path d="M753.035 133.2V121.2" stroke="#F0E0E0" stroke-width="3" stroke-miterlimit="10"/>
<path d="M761.848 133.5V121.5" stroke="#F0E0E0" stroke-width="3" stroke-miterlimit="10"/>
<path d="M735.41 132.6V120.6" stroke="#F0E0E0" stroke-width="3" stroke-miterlimit="10"/>
<path d="M743.244 132.9V120.8" stroke="#F0E0E0" stroke-width="3" stroke-miterlimit="10"/>
<path d="M720.723 132.1V120.1" stroke="#F0E0E0" stroke-width="3" stroke-miterlimit="10"/>
<path d="M729.536 132.4V120.4" stroke="#F0E0E0" stroke-width="3" stroke-miterlimit="10"/>
<path d="M704.076 119.5C704.076 122.7 704.076 128.3 704.076 131.5" stroke="#F0E0E0" stroke-width="3" stroke-miterlimit="10"/>
<path d="M711.91 131.8V119.8" stroke="#F0E0E0" stroke-width="3" stroke-miterlimit="10"/>
<path d="M698.202 131.3V119.3" stroke="#F0E0E0" stroke-width="3" stroke-miterlimit="10"/>
<path d="M698.202 139.3V151.3L689.39 151V139C689.585 139 692.915 139.1 698.202 139.3Z" stroke="#F0E0E0" stroke-width="3" stroke-miterlimit="10"/>
<path d="M704.076 139.5C706.524 139.6 709.168 139.7 711.91 139.8V151.8L704.076 151.5V139.5Z" stroke="#F0E0E0" stroke-width="3" stroke-miterlimit="10"/>
<path d="M729.536 140.4V152.4L720.723 152.1V140.1C723.563 140.2 726.599 140.3 729.536 140.4Z" stroke="#F0E0E0" stroke-width="3" stroke-miterlimit="10"/>
<path d="M743.243 140.8V152.8L735.41 152.5V140.5C738.054 140.7 740.698 140.8 743.243 140.8Z" stroke="#F0E0E0" stroke-width="3" stroke-miterlimit="10"/>
<path d="M761.848 141.5V153.5L753.035 153.2V141.2C756.169 141.3 759.106 141.4 761.848 141.5Z" stroke="#F0E0E0" stroke-width="3" stroke-miterlimit="10"/>
<path d="M776.536 142V154L766.744 153.7V141.7C772.717 141.9 776.536 142 776.536 142Z" stroke="#F0E0E0" stroke-width="3" stroke-miterlimit="10"/>
<path d="M766.744 153.7V141.7" stroke="#F0E0E0" stroke-width="3" stroke-miterlimit="10"/>
<path d="M753.035 153.2V141.2" stroke="#F0E0E0" stroke-width="3" stroke-miterlimit="10"/>
<path d="M761.848 153.5V141.5" stroke="#F0E0E0" stroke-width="3" stroke-miterlimit="10"/>
<path d="M735.41 152.6V140.6" stroke="#F0E0E0" stroke-width="3" stroke-miterlimit="10"/>
<path d="M743.244 152.9V140.8" stroke="#F0E0E0" stroke-width="3" stroke-miterlimit="10"/>
<path d="M720.723 152.1V140.1" stroke="#F0E0E0" stroke-width="3" stroke-miterlimit="10"/>
<path d="M729.536 152.4V140.4" stroke="#F0E0E0" stroke-width="3" stroke-miterlimit="10"/>
<path d="M704.076 139.5C704.076 142.7 704.076 148.3 704.076 151.5" stroke="#F0E0E0" stroke-width="3" stroke-miterlimit="10"/>
<path d="M711.91 151.8V139.8" stroke="#F0E0E0" stroke-width="3" stroke-miterlimit="10"/>
<path d="M698.202 151.3V139.3" stroke="#F0E0E0" stroke-width="3" stroke-miterlimit="10"/>
<path d="M197.74 83.7998L186.773 85.6998L190.004 171.5L195.781 171.3L197.74 83.7998Z" stroke="#F0E0E0" stroke-width="3" stroke-miterlimit="10"/>
<path d="M246.307 85.6998V96.6998L236.516 94.8998L236.809 83.7998L246.307 85.6998Z" stroke="#F0E0E0" stroke-width="3" stroke-miterlimit="10"/>
<path d="M259.723 88.4998V99.3998L251.204 97.7998V86.7998L259.723 88.4998Z" stroke="#F0E0E0" stroke-width="3" stroke-miterlimit="10"/>
<path d="M273.528 91.2V101.9L264.716 100.3V89.5L273.528 91.2Z" stroke="#F0E0E0" stroke-width="3" stroke-miterlimit="10"/>
<path d="M287.237 93.7V104.3L278.425 102.7V92L287.237 93.7Z" stroke="#F0E0E0" stroke-width="3" stroke-miterlimit="10"/>
<path d="M300.75 96.2996L300.554 106.7L292.133 105.2V94.5996L300.75 96.2996Z" stroke="#F0E0E0" stroke-width="3" stroke-miterlimit="10"/>
<path d="M246.308 96.6992V85.6992" stroke="#F0E0E0" stroke-width="3" stroke-miterlimit="10"/>
<path d="M251.204 97.8004V86.9004" stroke="#F0E0E0" stroke-width="3" stroke-miterlimit="10"/>
<path d="M259.723 99.4V88.5" stroke="#F0E0E0" stroke-width="3" stroke-miterlimit="10"/>
<path d="M292.133 94.1992V94.5992V105.199" stroke="#F0E0E0" stroke-width="3" stroke-miterlimit="10"/>
<path d="M246.013 104.9V115.9L236.221 114.1L236.514 102.9L246.013 104.9Z" stroke="#F0E0E0" stroke-width="3" stroke-miterlimit="10"/>
<path d="M259.33 107.7V118.5L250.909 116.9V106L259.33 107.7Z" stroke="#F0E0E0" stroke-width="3" stroke-miterlimit="10"/>
<path d="M273.234 110.4V121.1L264.421 119.5V108.7L273.234 110.4Z" stroke="#F0E0E0" stroke-width="3" stroke-miterlimit="10"/>
<path d="M286.942 112.801V123.501L278.13 121.801V111.101L286.942 112.801Z" stroke="#F0E0E0" stroke-width="3" stroke-miterlimit="10"/>
<path d="M300.455 115.501L300.259 125.901L291.838 124.401V113.801L300.455 115.501Z" stroke="#F0E0E0" stroke-width="3" stroke-miterlimit="10"/>
<path d="M246.013 115.9V104.9" stroke="#F0E0E0" stroke-width="3" stroke-miterlimit="10"/>
<path d="M250.909 116.9V106" stroke="#F0E0E0" stroke-width="3" stroke-miterlimit="10"/>
<path d="M259.33 118.5V107.7" stroke="#F0E0E0" stroke-width="3" stroke-miterlimit="10"/>
<path d="M291.838 113.301V113.801V124.401" stroke="#F0E0E0" stroke-width="3" stroke-miterlimit="10"/>
<path d="M279.795 130.6V158.9H274.997V129.6L279.795 130.6Z" stroke="#F0E0E0" stroke-width="3" stroke-miterlimit="10"/>
<path d="M284.887 131L289.685 132.2V158.9H284.887V131Z" stroke="#F0E0E0" stroke-width="3" stroke-miterlimit="10"/>
<path d="M299.477 133.7L298.89 158.9H294.777V132.5L299.477 133.7Z" stroke="#F0E0E0" stroke-width="3" stroke-miterlimit="10"/>
<path d="M237.494 125.4L250.909 127.2V138.5L237.494 136.9V125.4Z" stroke="#F0E0E0" stroke-width="3" stroke-miterlimit="10"/>
<path d="M268.828 129.6V140.6L257.078 139.2V128L268.828 129.6Z" stroke="#F0E0E0" stroke-width="3" stroke-miterlimit="10"/>
<path d="M266.575 158.9L241.116 158.2V145.7L266.575 148.1V158.9Z" stroke="#F0E0E0" stroke-width="3" stroke-miterlimit="10"/>
<path d="M250.909 138.5V127.2" stroke="#F0E0E0" stroke-width="3" stroke-miterlimit="10"/>
<path d="M257.078 139.2V128" stroke="#F0E0E0" stroke-width="3" stroke-miterlimit="10"/>
<path d="M253.846 146.9V158.6" stroke="#F0E0E0" stroke-width="3" stroke-miterlimit="10"/>
<path d="M382.903 172L387.897 65.5996H370.271V172" stroke="#F0E0E0" stroke-width="3" stroke-miterlimit="10"/>
<path d="M444.984 73.2998L489.537 99.0998L489.439 110L444.984 87.7998V73.2998Z" stroke="#F0E0E0" stroke-width="3" stroke-miterlimit="10"/>
<path d="M444.984 123L467.31 130V141.8L444.984 137.3V123Z" stroke="#F0E0E0" stroke-width="3" stroke-miterlimit="10"/>
<path d="M444.984 148.4V162.5H465.645V150.3L444.984 148.4Z" stroke="#F0E0E0" stroke-width="3" stroke-miterlimit="10"/>
<path d="M478.667 132.4L472.303 130.7V162.5H477.59" stroke="#F0E0E0" stroke-width="3" stroke-miterlimit="10"/>
<path d="M506.183 152.2H486.109V165.8H506.183V152.2Z" stroke="#F0E0E0" stroke-width="3" stroke-miterlimit="10"/>
<path d="M494.139 132.4H486.109V141.8H494.139V132.4Z" stroke="#F0E0E0" stroke-width="3" stroke-miterlimit="10"/>
<path d="M506.574 132.4H498.74V141.8H506.574V132.4Z" stroke="#F0E0E0" stroke-width="3" stroke-miterlimit="10"/>
<path d="M535.264 152.2H515.19V165.8H535.264V152.2Z" stroke="#F0E0E0" stroke-width="3" stroke-miterlimit="10"/>
<path d="M523.22 132.4H515.19V141.8H523.22V132.4Z" stroke="#F0E0E0" stroke-width="3" stroke-miterlimit="10"/>
<path d="M535.753 132.4H527.92V141.8H535.753V132.4Z" stroke="#F0E0E0" stroke-width="3" stroke-miterlimit="10"/>
<path d="M698.201 158.9H689.389V165.5H698.201V158.9Z" stroke="#F0E0E0" stroke-width="3" stroke-miterlimit="10"/>
<path d="M711.91 158.9H704.076V165.5H711.91V158.9Z" stroke="#F0E0E0" stroke-width="3" stroke-miterlimit="10"/>
<path d="M718.176 174.8V161.5L743.243 162.2V175.4" stroke="#F0E0E0" stroke-width="3" stroke-miterlimit="10"/>
<path d="M761.848 162.2H753.035V168.5H761.848V162.2Z" stroke="#F0E0E0" stroke-width="3" stroke-miterlimit="10"/>
<path d="M775.557 162.2H766.744V168.5H775.557V162.2Z" stroke="#F0E0E0" stroke-width="3" stroke-miterlimit="10"/>
<path d="M604.787 172.8L606.745 62.2002H624.958V173" stroke="#F0E0E0" stroke-width="3" stroke-miterlimit="10"/>
<path d="M783.195 102.5L818.25 84V99.5L782.705 115.6" stroke="#F0E0E0" stroke-width="3" stroke-miterlimit="10"/>
<path d="M782.705 124.6L818.25 111.3V125L783.391 137" stroke="#F0E0E0" stroke-width="3" stroke-miterlimit="10"/>
<path d="M796.121 176.2L797.296 140.5L781.727 145.1" stroke="#F0E0E0" stroke-width="3" stroke-miterlimit="10"/>
<path d="M802.093 139.5L817.074 137V151.3L802.093 152.4V139.5Z" stroke="#F0E0E0" stroke-width="3" stroke-miterlimit="10"/>
<path d="M814.626 162.2V177.4L802.093 177V162.2H814.626Z" stroke="#F0E0E0" stroke-width="3" stroke-miterlimit="10"/>
<path d="M64.6672 184.3L67.6048 106.9L74.3612 106L73.4799 183.9" stroke="#F0E0E0" stroke-width="3" stroke-miterlimit="10"/>
<path d="M50.2741 118.3L25.9902 116.4V123.7L49.8824 125.7L49.5886 131.4L25.9902 129.6V138L49.197 139L48.9032 143.7L25.9902 142.6V150.2L48.5115 151.2" stroke="#F0E0E0" stroke-width="3" stroke-miterlimit="10"/>
<path d="M48.2171 155.9H28.4375V163.8H47.8254" stroke="#F0E0E0" stroke-width="3" stroke-miterlimit="10"/>
<path d="M108.242 106.8V115.6L100.408 115.5V106.6L108.242 106.8Z" stroke="#F0E0E0" stroke-width="3" stroke-miterlimit="10"/>
<path d="M121.167 107V115.9L113.236 115.7L113.138 106.8L121.167 107Z" stroke="#F0E0E0" stroke-width="3" stroke-miterlimit="10"/>
<path d="M132.918 107.3V116.1L126.259 115.9V107.1L132.918 107.3Z" stroke="#F0E0E0" stroke-width="3" stroke-miterlimit="10"/>
<path d="M145.353 107.5V116.3L137.52 116.2V107.3L145.353 107.5Z" stroke="#F0E0E0" stroke-width="3" stroke-miterlimit="10"/>
<path d="M153.48 107.7L149.759 107.6V116.4L153.284 116.5" stroke="#F0E0E0" stroke-width="3" stroke-miterlimit="10"/>
<path d="M108.242 122.3V131.1L100.408 130.9V122.1L108.242 122.3Z" stroke="#F0E0E0" stroke-width="3" stroke-miterlimit="10"/>
<path d="M121.167 122.5V131.3L113.235 131.2V122.3L121.167 122.5Z" stroke="#F0E0E0" stroke-width="3" stroke-miterlimit="10"/>
<path d="M132.918 122.7V131.6L126.259 131.4V122.6L132.918 122.7Z" stroke="#F0E0E0" stroke-width="3" stroke-miterlimit="10"/>
<path d="M145.353 123V131.8L137.52 131.7V122.8L145.353 123Z" stroke="#F0E0E0" stroke-width="3" stroke-miterlimit="10"/>
<path d="M153.186 123.1L153.088 132L149.759 131.9V123L153.186 123.1Z" stroke="#F0E0E0" stroke-width="3" stroke-miterlimit="10"/>
<path d="M152.991 137.6H147.214V159.4H152.599H152.991" stroke="#F0E0E0" stroke-width="3" stroke-miterlimit="10"/>
<path d="M108.634 137.9V147.7L100.408 147.8V138L108.634 137.9Z" stroke="#F0E0E0" stroke-width="3" stroke-miterlimit="10"/>
<path d="M113.235 137.9L122.538 137.7V147.4L113.235 147.6V137.9Z" stroke="#F0E0E0" stroke-width="3" stroke-miterlimit="10"/>
<path d="M137.518 137.6V147.1L127.53 147.3V137.7L137.518 137.6Z" stroke="#F0E0E0" stroke-width="3" stroke-miterlimit="10"/>
<path d="M127.53 147.3V137.7" stroke="#F0E0E0" stroke-width="3" stroke-miterlimit="10"/>
<path d="M108.633 147.7V137.9" stroke="#F0E0E0" stroke-width="3" stroke-miterlimit="10"/>
<path d="M121.166 131.4V122.5" stroke="#F0E0E0" stroke-width="3" stroke-miterlimit="10"/>
<path d="M121.166 115.9V107" stroke="#F0E0E0" stroke-width="3" stroke-miterlimit="10"/>
<path d="M132.917 131.6V122.7" stroke="#F0E0E0" stroke-width="3" stroke-miterlimit="10"/>
<path d="M132.917 116.1V107.3" stroke="#F0E0E0" stroke-width="3" stroke-miterlimit="10"/>
<path d="M145.353 131.8V123" stroke="#F0E0E0" stroke-width="3" stroke-miterlimit="10"/>
<path d="M145.353 116.4V107.5" stroke="#F0E0E0" stroke-width="3" stroke-miterlimit="10"/>
<path d="M109.221 153.7L122.342 153.3V162.3L109.221 163V153.7Z" stroke="#F0E0E0" stroke-width="3" stroke-miterlimit="10"/>
<path d="M137.519 152.9V161.6L127.042 162.1V153.2L137.519 152.9Z" stroke="#F0E0E0" stroke-width="3" stroke-miterlimit="10"/>
<path d="M127.042 162.1V153.2" stroke="#F0E0E0" stroke-width="3" stroke-miterlimit="10"/>
<path d="M122.341 162.4V153.3" stroke="#F0E0E0" stroke-width="3" stroke-miterlimit="10"/>
<g filter="url(#filter0_d_2043_5756)">
<circle cx="480" cy="96" r="10" fill="#AC0404"/>
</g>
<g filter="url(#filter1_d_2043_5756)">
<circle cx="480" cy="96" r="10" fill="#AC0404"/>
</g>
<circle cx="480" cy="96" r="13" stroke="#A51212" stroke-opacity="0.8" stroke-width="2"/>
<circle cx="480" cy="96" r="18.25" stroke="#A51212" stroke-opacity="0.4" stroke-width="1.5"/>
<rect x="468" y="8" width="24" height="66" rx="12" fill="#740F0F" stroke="#AC0404" stroke-width="2"/>
<rect x="418" y="1" width="124" height="66" rx="8" fill="#740F0F" stroke="#AC0404" stroke-width="2"/>
<path d="M462.316 27.144C462.316 28.3173 462.018 29.3413 461.42 30.216C460.823 31.0907 460.012 31.7733 458.988 32.264C457.986 32.7547 456.876 33 455.66 33H444.876V10.28H456.172C457.239 10.28 458.156 10.568 458.924 11.144C459.714 11.6987 460.311 12.424 460.716 13.32C461.143 14.1947 461.356 15.112 461.356 16.072C461.356 17.1813 461.068 18.2267 460.492 19.208C459.938 20.168 459.138 20.8827 458.092 21.352C459.394 21.736 460.418 22.4507 461.164 23.496C461.932 24.52 462.316 25.736 462.316 27.144ZM459.404 26.632C459.404 25.928 459.244 25.2773 458.924 24.68C458.626 24.0827 458.21 23.6027 457.676 23.24C457.164 22.8773 456.567 22.696 455.884 22.696H447.756V30.504H455.66C456.364 30.504 456.994 30.3227 457.548 29.96C458.124 29.5973 458.572 29.128 458.892 28.552C459.234 27.9547 459.404 27.3147 459.404 26.632ZM447.756 12.776V20.36H454.988C455.671 20.36 456.268 20.1893 456.78 19.848C457.314 19.5067 457.73 19.048 458.028 18.472C458.348 17.896 458.508 17.2667 458.508 16.584C458.508 15.8587 458.359 15.2187 458.06 14.664C457.783 14.088 457.388 13.6293 456.876 13.288C456.386 12.9467 455.82 12.776 455.18 12.776H447.756ZM475.081 25.448C475.998 25.5973 476.788 25.9387 477.449 26.472C478.11 26.984 478.622 27.6453 478.985 28.456C479.348 29.2453 479.529 30.1413 479.529 31.144C479.529 32.4453 479.209 33.5867 478.569 34.568C477.95 35.5707 477.065 36.3387 475.913 36.872C474.761 37.4267 473.417 37.704 471.881 37.704C470.26 37.704 468.83 37.3947 467.593 36.776C466.377 36.1787 465.428 35.3253 464.745 34.216L466.633 32.328C467.124 33.1813 467.785 33.864 468.617 34.376C469.47 34.888 470.558 35.144 471.881 35.144C473.353 35.144 474.505 34.8027 475.337 34.12C476.19 33.4587 476.617 32.4667 476.617 31.144C476.617 29.8 476.158 28.7333 475.241 27.944C474.345 27.1333 473.033 26.728 471.305 26.728H470.473V24.36H471.369C472.905 24.36 474.078 23.9867 474.889 23.24C475.721 22.4933 476.137 21.5653 476.137 20.456C476.137 19.688 475.956 19.0587 475.593 18.568C475.23 18.0773 474.74 17.7147 474.121 17.48C473.502 17.224 472.788 17.096 471.977 17.096C470.804 17.096 469.769 17.352 468.873 17.864C467.998 18.3547 467.316 19.048 466.825 19.944L465.097 18.152C465.481 17.4267 466.025 16.7973 466.729 16.264C467.454 15.7307 468.286 15.3147 469.225 15.016C470.185 14.7173 471.198 14.568 472.265 14.568C473.609 14.568 474.793 14.8027 475.817 15.272C476.862 15.7413 477.673 16.4027 478.249 17.256C478.825 18.1093 479.113 19.112 479.113 20.264C479.113 21.096 478.953 21.8853 478.633 22.632C478.313 23.3573 477.844 23.976 477.225 24.488C476.628 24.9787 475.913 25.2987 475.081 25.448ZM494.538 30.44V33H483.05V30.44H487.594V17.96C487.402 18.216 487.104 18.4933 486.698 18.792C486.293 19.0693 485.834 19.336 485.322 19.592C484.81 19.848 484.298 20.0613 483.786 20.232C483.274 20.3813 482.805 20.456 482.378 20.456V17.768C482.848 17.768 483.36 17.64 483.914 17.384C484.49 17.1067 485.045 16.7867 485.578 16.424C486.112 16.0613 486.56 15.72 486.922 15.4C487.306 15.08 487.53 14.856 487.594 14.728H490.474V30.44H494.538ZM503.697 37.768C502.075 37.768 500.614 37.384 499.312 36.616C498.011 35.848 497.03 34.824 496.368 33.544L498.129 32.008C498.726 32.9893 499.515 33.7787 500.497 34.376C501.499 34.9733 502.577 35.272 503.729 35.272C504.71 35.272 505.585 35.0587 506.353 34.632C507.121 34.2053 507.729 33.6187 508.177 32.872C508.625 32.104 508.849 31.2293 508.849 30.248C508.849 29.288 508.625 28.4453 508.177 27.72C507.75 26.9947 507.163 26.4293 506.417 26.024C505.691 25.6187 504.87 25.416 503.953 25.416C503.035 25.416 502.171 25.6187 501.361 26.024C500.571 26.4293 499.921 27.0053 499.409 27.752H496.881L499.441 14.728H510.481V17.32H501.521L500.145 24.552C500.614 24.0613 501.201 23.6773 501.905 23.4C502.63 23.1013 503.43 22.952 504.305 22.952C505.713 22.952 506.971 23.2613 508.081 23.88C509.211 24.4987 510.097 25.352 510.737 26.44C511.398 27.528 511.729 28.7867 511.729 30.216C511.729 31.7093 511.366 33.0213 510.641 34.152C509.937 35.304 508.977 36.1893 507.761 36.808C506.545 37.448 505.19 37.768 503.697 37.768Z" fill="#F8F8F8"/>
<path d="M438.072 54.72V56H430.36V44.64H437.928V45.92H431.8V49.6H437.128V50.8H431.8V54.72H438.072ZM442.688 56.16C441.994 56.16 441.344 56.048 440.736 55.824C440.128 55.5893 439.605 55.2427 439.168 54.784L439.712 53.792C440.192 54.24 440.672 54.56 441.152 54.752C441.632 54.944 442.122 55.04 442.624 55.04C443.2 55.04 443.669 54.9333 444.032 54.72C444.394 54.496 444.576 54.1707 444.576 53.744C444.576 53.4347 444.48 53.2053 444.288 53.056C444.106 52.9067 443.845 52.784 443.504 52.688C443.162 52.5813 442.757 52.464 442.288 52.336C441.712 52.1653 441.226 51.984 440.832 51.792C440.437 51.6 440.138 51.36 439.936 51.072C439.733 50.784 439.632 50.4213 439.632 49.984C439.632 49.4507 439.77 49.0027 440.048 48.64C440.325 48.2667 440.704 47.984 441.184 47.792C441.674 47.6 442.229 47.504 442.848 47.504C443.466 47.504 444.026 47.6 444.528 47.792C445.029 47.984 445.461 48.2667 445.824 48.64L445.184 49.616C444.853 49.2747 444.49 49.024 444.096 48.864C443.701 48.6933 443.258 48.608 442.768 48.608C442.48 48.608 442.197 48.6453 441.92 48.72C441.642 48.784 441.413 48.9067 441.232 49.088C441.05 49.2587 440.96 49.504 440.96 49.824C440.96 50.0907 441.029 50.304 441.168 50.464C441.317 50.6133 441.53 50.7413 441.808 50.848C442.096 50.9547 442.442 51.072 442.848 51.2C443.477 51.3813 444.021 51.5627 444.48 51.744C444.949 51.9253 445.312 52.16 445.568 52.448C445.824 52.736 445.952 53.136 445.952 53.648C445.952 54.4373 445.653 55.056 445.056 55.504C444.458 55.9413 443.669 56.16 442.688 56.16ZM451.956 55.584C451.839 55.6373 451.679 55.7067 451.476 55.792C451.273 55.8773 451.039 55.952 450.772 56.016C450.505 56.08 450.223 56.112 449.924 56.112C449.583 56.112 449.268 56.0533 448.98 55.936C448.692 55.808 448.463 55.616 448.292 55.36C448.121 55.0933 448.036 54.7627 448.036 54.368V48.752H446.9V47.648H448.036V44.864H449.444V47.648H451.316V48.752H449.444V53.936C449.465 54.2347 449.567 54.4587 449.748 54.608C449.929 54.7467 450.143 54.816 450.388 54.816C450.665 54.816 450.921 54.768 451.156 54.672C451.391 54.576 451.545 54.5067 451.62 54.464L451.956 55.584ZM452.605 53.584C452.605 53.0507 452.754 52.592 453.053 52.208C453.362 51.8133 453.784 51.5093 454.317 51.296C454.85 51.0827 455.469 50.976 456.173 50.976C456.546 50.976 456.941 51.008 457.357 51.072C457.773 51.1253 458.141 51.2107 458.461 51.328V50.72C458.461 50.08 458.269 49.5787 457.885 49.216C457.501 48.8427 456.957 48.656 456.253 48.656C455.794 48.656 455.352 48.7413 454.925 48.912C454.509 49.072 454.066 49.3067 453.597 49.616L453.085 48.624C453.629 48.2507 454.173 47.9733 454.717 47.792C455.261 47.6 455.826 47.504 456.413 47.504C457.48 47.504 458.322 47.8027 458.941 48.4C459.56 48.9867 459.869 49.808 459.869 50.864V54.4C459.869 54.5707 459.901 54.6987 459.965 54.784C460.04 54.8587 460.157 54.9013 460.317 54.912V56C460.178 56.0213 460.056 56.0373 459.949 56.048C459.853 56.0587 459.773 56.064 459.709 56.064C459.378 56.064 459.128 55.9733 458.957 55.792C458.797 55.6107 458.706 55.4187 458.685 55.216L458.653 54.688C458.29 55.1573 457.816 55.52 457.229 55.776C456.642 56.032 456.061 56.16 455.485 56.16C454.93 56.16 454.434 56.048 453.997 55.824C453.56 55.5893 453.218 55.28 452.973 54.896C452.728 54.5013 452.605 54.064 452.605 53.584ZM458.045 54.176C458.173 54.0267 458.274 53.8773 458.349 53.728C458.424 53.568 458.461 53.4347 458.461 53.328V52.288C458.13 52.16 457.784 52.064 457.421 52C457.058 51.9253 456.701 51.888 456.349 51.888C455.634 51.888 455.053 52.032 454.605 52.32C454.168 52.5973 453.949 52.9813 453.949 53.472C453.949 53.7387 454.018 54 454.157 54.256C454.306 54.5013 454.52 54.704 454.797 54.864C455.085 55.024 455.437 55.104 455.853 55.104C456.29 55.104 456.706 55.0187 457.101 54.848C457.496 54.6667 457.81 54.4427 458.045 54.176ZM474.712 56H473.304V51.328C473.304 50.4533 473.16 49.808 472.872 49.392C472.595 48.976 472.179 48.768 471.624 48.768C471.059 48.768 470.547 48.976 470.088 49.392C469.63 49.7973 469.304 50.3253 469.112 50.976V56H467.704V51.328C467.704 50.4427 467.566 49.7973 467.288 49.392C467.011 48.976 466.595 48.768 466.04 48.768C465.486 48.768 464.974 48.9707 464.504 49.376C464.046 49.7707 463.72 50.2987 463.528 50.96V56H462.12V47.648H463.4V49.44C463.742 48.8213 464.184 48.3467 464.728 48.016C465.272 47.6747 465.886 47.504 466.568 47.504C467.262 47.504 467.816 47.696 468.232 48.08C468.648 48.4533 468.904 48.9387 469 49.536C469.374 48.8747 469.827 48.3733 470.36 48.032C470.894 47.68 471.502 47.504 472.184 47.504C472.664 47.504 473.064 47.5947 473.384 47.776C473.715 47.9467 473.976 48.192 474.168 48.512C474.36 48.8213 474.499 49.1893 474.584 49.616C474.67 50.0427 474.712 50.5067 474.712 51.008V56ZM480.55 56.16C479.92 56.16 479.35 56.048 478.838 55.824C478.326 55.5893 477.883 55.2747 477.51 54.88C477.136 54.4747 476.848 54.0107 476.646 53.488C476.443 52.9653 476.342 52.416 476.342 51.84C476.342 51.2533 476.443 50.6987 476.646 50.176C476.848 49.6533 477.136 49.1947 477.51 48.8C477.883 48.3947 478.326 48.08 478.838 47.856C479.36 47.6213 479.931 47.504 480.55 47.504C481.179 47.504 481.75 47.6213 482.262 47.856C482.774 48.08 483.216 48.3947 483.59 48.8C483.974 49.1947 484.267 49.6533 484.47 50.176C484.672 50.6987 484.774 51.2533 484.774 51.84C484.774 52.416 484.672 52.9653 484.47 53.488C484.267 54.0107 483.979 54.4747 483.606 54.88C483.232 55.2747 482.784 55.5893 482.262 55.824C481.75 56.048 481.179 56.16 480.55 56.16ZM477.782 51.856C477.782 52.432 477.904 52.9547 478.15 53.424C478.406 53.8933 478.742 54.2667 479.158 54.544C479.574 54.8107 480.038 54.944 480.55 54.944C481.062 54.944 481.526 54.8053 481.942 54.528C482.368 54.2507 482.704 53.8773 482.95 53.408C483.206 52.928 483.334 52.4 483.334 51.824C483.334 51.248 483.206 50.7253 482.95 50.256C482.704 49.7867 482.368 49.4133 481.942 49.136C481.526 48.8587 481.062 48.72 480.55 48.72C480.038 48.72 479.574 48.864 479.158 49.152C478.742 49.4293 478.406 49.8027 478.15 50.272C477.904 50.7413 477.782 51.2693 477.782 51.856ZM489.344 56.16C488.65 56.16 488 56.048 487.392 55.824C486.784 55.5893 486.261 55.2427 485.824 54.784L486.368 53.792C486.848 54.24 487.328 54.56 487.808 54.752C488.288 54.944 488.778 55.04 489.28 55.04C489.856 55.04 490.325 54.9333 490.688 54.72C491.05 54.496 491.232 54.1707 491.232 53.744C491.232 53.4347 491.136 53.2053 490.944 53.056C490.762 52.9067 490.501 52.784 490.16 52.688C489.818 52.5813 489.413 52.464 488.944 52.336C488.368 52.1653 487.882 51.984 487.488 51.792C487.093 51.6 486.794 51.36 486.592 51.072C486.389 50.784 486.288 50.4213 486.288 49.984C486.288 49.4507 486.426 49.0027 486.704 48.64C486.981 48.2667 487.36 47.984 487.84 47.792C488.33 47.6 488.885 47.504 489.504 47.504C490.122 47.504 490.682 47.6 491.184 47.792C491.685 47.984 492.117 48.2667 492.48 48.64L491.84 49.616C491.509 49.2747 491.146 49.024 490.752 48.864C490.357 48.6933 489.914 48.608 489.424 48.608C489.136 48.608 488.853 48.6453 488.576 48.72C488.298 48.784 488.069 48.9067 487.888 49.088C487.706 49.2587 487.616 49.504 487.616 49.824C487.616 50.0907 487.685 50.304 487.824 50.464C487.973 50.6133 488.186 50.7413 488.464 50.848C488.752 50.9547 489.098 51.072 489.504 51.2C490.133 51.3813 490.677 51.5627 491.136 51.744C491.605 51.9253 491.968 52.16 492.224 52.448C492.48 52.736 492.608 53.136 492.608 53.648C492.608 54.4373 492.309 55.056 491.712 55.504C491.114 55.9413 490.325 56.16 489.344 56.16ZM497.683 53.584C497.683 53.0507 497.832 52.592 498.131 52.208C498.44 51.8133 498.862 51.5093 499.395 51.296C499.928 51.0827 500.547 50.976 501.251 50.976C501.624 50.976 502.019 51.008 502.435 51.072C502.851 51.1253 503.219 51.2107 503.539 51.328V50.72C503.539 50.08 503.347 49.5787 502.963 49.216C502.579 48.8427 502.035 48.656 501.331 48.656C500.872 48.656 500.43 48.7413 500.003 48.912C499.587 49.072 499.144 49.3067 498.675 49.616L498.163 48.624C498.707 48.2507 499.251 47.9733 499.795 47.792C500.339 47.6 500.904 47.504 501.491 47.504C502.558 47.504 503.4 47.8027 504.019 48.4C504.638 48.9867 504.947 49.808 504.947 50.864V54.4C504.947 54.5707 504.979 54.6987 505.043 54.784C505.118 54.8587 505.235 54.9013 505.395 54.912V56C505.256 56.0213 505.134 56.0373 505.027 56.048C504.931 56.0587 504.851 56.064 504.787 56.064C504.456 56.064 504.206 55.9733 504.035 55.792C503.875 55.6107 503.784 55.4187 503.763 55.216L503.731 54.688C503.368 55.1573 502.894 55.52 502.307 55.776C501.72 56.032 501.139 56.16 500.563 56.16C500.008 56.16 499.512 56.048 499.075 55.824C498.638 55.5893 498.296 55.28 498.051 54.896C497.806 54.5013 497.683 54.064 497.683 53.584ZM503.123 54.176C503.251 54.0267 503.352 53.8773 503.427 53.728C503.502 53.568 503.539 53.4347 503.539 53.328V52.288C503.208 52.16 502.862 52.064 502.499 52C502.136 51.9253 501.779 51.888 501.427 51.888C500.712 51.888 500.131 52.032 499.683 52.32C499.246 52.5973 499.027 52.9813 499.027 53.472C499.027 53.7387 499.096 54 499.235 54.256C499.384 54.5013 499.598 54.704 499.875 54.864C500.163 55.024 500.515 55.104 500.931 55.104C501.368 55.104 501.784 55.0187 502.179 54.848C502.574 54.6667 502.888 54.4427 503.123 54.176ZM510.399 56.16C509.844 56.16 509.337 56.0427 508.879 55.808C508.42 55.5733 508.025 55.2587 507.695 54.864C507.364 54.4587 507.108 53.9947 506.927 53.472C506.745 52.9493 506.655 52.4 506.655 51.824C506.655 51.2373 506.756 50.6827 506.959 50.16C507.161 49.6373 507.439 49.1787 507.791 48.784C508.153 48.3893 508.575 48.08 509.055 47.856C509.535 47.6213 510.052 47.504 510.607 47.504C511.257 47.504 511.849 47.6693 512.383 48C512.916 48.32 513.337 48.7307 513.647 49.232V47.648H514.895V59.408H513.487V54.352C512.719 55.5573 511.689 56.16 510.399 56.16ZM510.879 54.944C511.273 54.944 511.631 54.864 511.951 54.704C512.281 54.544 512.575 54.3307 512.831 54.064C513.087 53.7867 513.305 53.4827 513.487 53.152V50.752C513.444 50.4747 513.337 50.2187 513.167 49.984C512.996 49.7387 512.788 49.52 512.543 49.328C512.297 49.136 512.031 48.9867 511.743 48.88C511.465 48.7733 511.188 48.72 510.911 48.72C510.495 48.72 510.116 48.8107 509.775 48.992C509.433 49.1627 509.135 49.3973 508.879 49.696C508.633 49.9947 508.441 50.3307 508.303 50.704C508.164 51.0773 508.095 51.4613 508.095 51.856C508.095 52.4107 508.212 52.9227 508.447 53.392C508.692 53.8613 509.023 54.24 509.439 54.528C509.855 54.8053 510.335 54.944 510.879 54.944ZM517.087 52.656V47.648H518.495V52.384C518.495 53.2373 518.645 53.8773 518.943 54.304C519.242 54.7307 519.685 54.944 520.271 54.944C520.655 54.944 521.023 54.864 521.375 54.704C521.738 54.5333 522.063 54.2933 522.351 53.984C522.639 53.6747 522.863 53.3067 523.023 52.88V47.648H524.431V54.4C524.431 54.5707 524.463 54.6987 524.527 54.784C524.602 54.8587 524.719 54.9013 524.879 54.912V56C524.719 56.0213 524.591 56.032 524.495 56.032C524.41 56.0427 524.325 56.048 524.239 56.048C523.973 56.048 523.743 55.968 523.551 55.808C523.359 55.6373 523.258 55.4293 523.247 55.184L523.215 54.208C522.853 54.8267 522.362 55.3067 521.743 55.648C521.135 55.9893 520.469 56.16 519.743 56.16C518.869 56.16 518.207 55.8667 517.759 55.28C517.311 54.6827 517.087 53.808 517.087 52.656ZM526.777 56V47.648H528.185V56H526.777ZM526.777 46.08V44.32H528.185V46.08H526.777ZM530.72 52.16V44.528H532.128V52.16H530.72ZM530.72 56V54.016H532.128V56H530.72Z" fill="white"/>
<defs>
<filter id="filter0_d_2043_5756" x="462" y="78" width="36" height="36" filterUnits="userSpaceOnUse" color-interpolation-filters="sRGB">
<feFlood flood-opacity="0" result="BackgroundImageFix"/>
<feColorMatrix in="SourceAlpha" type="matrix" values="0 0 0 0 0 0 0 0 0 0 0 0 0 0 0 0 0 0 127 0" result="hardAlpha"/>
<feMorphology radius="1" operator="dilate" in="SourceAlpha" result="effect1_dropShadow_2043_5756"/>
<feOffset/>
<feGaussianBlur stdDeviation="3.5"/>
<feComposite in2="hardAlpha" operator="out"/>
<feColorMatrix type="matrix" values="0 0 0 0 0.954167 0 0 0 0 0.0159028 0 0 0 0 0.0159028 0 0 0 0.46 0"/>
<feBlend mode="normal" in2="BackgroundImageFix" result="effect1_dropShadow_2043_5756"/>
<feBlend mode="normal" in="SourceGraphic" in2="effect1_dropShadow_2043_5756" result="shape"/>
</filter>
<filter id="filter1_d_2043_5756" x="462" y="78" width="36" height="36" filterUnits="userSpaceOnUse" color-interpolation-filters="sRGB">
<feFlood flood-opacity="0" result="BackgroundImageFix"/>
<feColorMatrix in="SourceAlpha" type="matrix" values="0 0 0 0 0 0 0 0 0 0 0 0 0 0 0 0 0 0 127 0" result="hardAlpha"/>
<feMorphology radius="1" operator="dilate" in="SourceAlpha" result="effect1_dropShadow_2043_5756"/>
<feOffset/>
<feGaussianBlur stdDeviation="3.5"/>
<feComposite in2="hardAlpha" operator="out"/>
<feColorMatrix type="matrix" values="0 0 0 0 0.954167 0 0 0 0 0.0159028 0 0 0 0 0.0159028 0 0 0 0.46 0"/>
<feBlend mode="normal" in2="BackgroundImageFix" result="effect1_dropShadow_2043_5756"/>
<feBlend mode="normal" in="SourceGraphic" in2="effect1_dropShadow_2043_5756" result="shape"/>
</filter>
</defs>
</svg>
