<svg width="77" height="79" viewBox="0 0 77 79" fill="none" xmlns="http://www.w3.org/2000/svg">
<g clip-path="url(#clip0_1389_2063)">
<path d="M43.1922 55.8819H37.5057C37.0439 55.8819 36.7456 55.5049 36.7456 55.0314V36.1754C36.7456 31.4396 35.1773 30.2992 31.6942 30.2992C29.9526 30.2992 28.0475 30.3862 26.7293 30.5505V55.041C26.7293 55.5049 26.3926 55.8915 25.9211 55.8915H20.2827C19.8209 55.8915 19.4745 55.5146 19.4745 55.041V27.4191C19.4745 25.5151 19.9844 25.0512 21.6394 24.7999C23.8909 24.4616 28.721 24.0847 30.8859 24.0847C39.1126 24.0847 43.9908 26.3656 43.9908 36.185V55.0507C44.0004 55.5049 43.6637 55.8819 43.1922 55.8819Z" fill="white"/>
<path d="M56.682 28.8978H51.1687C50.6972 28.8978 50.322 28.5208 50.322 28.0473V24.1137C50.322 23.6498 50.7068 23.2632 51.1687 23.2632H56.682C57.1438 23.2632 57.5287 23.6401 57.5287 24.1137V28.0473C57.5287 28.5208 57.1534 28.8978 56.682 28.8978ZM56.5088 55.8819H51.3322C50.8704 55.8819 50.4855 55.5049 50.4855 55.0314V32.4931C50.4855 32.0292 50.8704 31.6426 51.3322 31.6426H56.5088C56.9706 31.6426 57.3555 32.0195 57.3555 32.4931V55.041C57.3651 55.5049 56.9802 55.8819 56.5088 55.8819Z" fill="white"/>
<path d="M28.3939 70.2245C28.1919 70.2729 27.9032 70.3212 27.6338 70.3212C27.0469 70.3212 26.7294 69.9829 26.7294 69.403V69.1227C26.7294 68.5429 27.0469 68.2046 27.6338 68.2046C27.9129 68.2046 28.1919 68.2432 28.3939 68.3012C28.4902 68.3206 28.5094 68.3496 28.5094 68.4075V70.1279C28.4998 70.1762 28.4902 70.2052 28.3939 70.2245ZM27.9225 68.6975C27.8551 68.6878 27.7493 68.6782 27.6242 68.6782C27.3644 68.6782 27.2971 68.8618 27.2971 69.1131V69.3934C27.2971 69.6446 27.3644 69.8379 27.6242 69.8379C27.7397 69.8379 27.8551 69.8283 27.9225 69.8186V68.6975Z" fill="white"/>
<path d="M32.9451 69.4417H31.8001V69.4513C31.8001 69.6543 31.8867 69.8476 32.1753 69.8476C32.4063 69.8476 32.7238 69.8283 32.8681 69.8186H32.8777C32.9162 69.8186 32.9451 69.8379 32.9451 69.8766V70.1472C32.9451 70.2052 32.9258 70.2342 32.8681 70.2439C32.6372 70.3018 32.4447 70.3308 32.1272 70.3308C31.6942 70.3308 31.2228 70.0989 31.2228 69.403V69.1517C31.2228 68.5719 31.5595 68.2046 32.1368 68.2046C32.7238 68.2046 33.0317 68.6105 33.0317 69.1517V69.3644C33.0221 69.403 32.9932 69.4417 32.9451 69.4417ZM32.4544 69.0648C32.4544 68.7941 32.3293 68.6685 32.1272 68.6685C31.9252 68.6685 31.8001 68.8038 31.8001 69.0648V69.0841H32.4544V69.0648Z" fill="white"/>
<path d="M36.813 68.6587H36.3223V70.2051C36.3223 70.2438 36.2838 70.2824 36.2453 70.2824H35.8123C35.7738 70.2824 35.7354 70.2438 35.7354 70.2051V68.0789C35.7354 67.586 36.0721 67.47 36.4377 67.47C36.5628 67.47 36.7264 67.4893 36.8322 67.499C36.8707 67.5086 36.89 67.5183 36.89 67.5376V67.8372C36.89 67.8759 36.8803 67.8952 36.8419 67.8952H36.4666C36.3511 67.8952 36.3319 67.9629 36.3319 68.0692V68.2142H36.8226C36.8611 68.2142 36.89 68.2432 36.89 68.2818V68.5718C36.8803 68.6297 36.8515 68.6587 36.813 68.6587Z" fill="white"/>
<path d="M41.2006 69.4417H40.0556V69.4513C40.0556 69.6543 40.1422 69.8476 40.4308 69.8476C40.6618 69.8476 40.9793 69.8283 41.1236 69.8186H41.1332C41.1717 69.8186 41.2006 69.8379 41.2006 69.8766V70.1472C41.2006 70.2052 41.191 70.2342 41.1236 70.2439C40.8927 70.3018 40.7002 70.3308 40.3827 70.3308C39.9497 70.3308 39.4783 70.0989 39.4783 69.403V69.1517C39.4783 68.5719 39.815 68.2046 40.3923 68.2046C40.9793 68.2046 41.2872 68.6105 41.2872 69.1517V69.3644C41.2775 69.403 41.2487 69.4417 41.2006 69.4417ZM40.7099 69.0648C40.7099 68.7941 40.5848 68.6685 40.3827 68.6685C40.1807 68.6685 40.0556 68.8038 40.0556 69.0648V69.0841H40.7099V69.0648Z" fill="white"/>
<path d="M44.8953 70.321H44.8376C44.6067 70.321 43.9716 70.2533 43.9716 69.4125V68.3107C43.9716 68.2721 44.0005 68.2334 44.039 68.2334H44.4816C44.5201 68.2334 44.5489 68.2721 44.5489 68.3107V69.4125C44.5489 69.7508 44.6548 69.8281 44.828 69.8281H44.8761C45.0493 69.8281 45.1551 69.7508 45.1551 69.4125V68.3107C45.1551 68.2721 45.184 68.2334 45.2225 68.2334H45.6651C45.7035 68.2334 45.7324 68.2721 45.7324 68.3107V69.4125C45.7516 70.2533 45.1166 70.321 44.8953 70.321Z" fill="white"/>
<path d="M49.3887 70.321C49.3214 70.321 49.1963 70.3113 49.0904 70.292V70.9105C49.0904 70.9492 49.0616 70.9782 49.0231 70.9782H48.5901C48.5516 70.9782 48.5131 70.9492 48.5131 70.9105V68.388C48.5131 68.33 48.5227 68.301 48.6286 68.2817C48.8306 68.2334 49.1193 68.1851 49.3983 68.1851C49.9853 68.1851 50.3028 68.5233 50.3028 69.1032V69.3835C50.2932 69.9634 49.9949 70.321 49.3887 70.321ZM49.7062 69.1129C49.7062 68.8616 49.6389 68.678 49.3887 68.678C49.2732 68.678 49.1578 68.6876 49.0904 68.6973V69.8184C49.177 69.8281 49.3021 69.8377 49.3887 69.8377C49.6485 69.8377 49.7062 69.6444 49.7062 69.3932V69.1129Z" fill="white"/>
<path d="M24.1315 69.3738L21.2257 69.3642L3.70959 39.5L21.1968 9.56812H55.816L55.8738 9.66476L72.801 39.5L55.816 69.3642H52.8044V68.0794H55.1804L70.9462 39.5L55.4122 11.3853L22.0258 11.1529L5.5644 39.5L22.0258 68.0794H24.1315V69.3738Z" fill="white"/>
<path d="M57.787 72.8328H19.1867L-0.111877 39.5004L19.1867 6.16473H57.7838L77.0824 39.5004L77.0534 39.5489L57.787 72.8328ZM19.2995 72.6385H57.6774L76.8632 39.5004L57.6742 6.35903H19.2995L0.110575 39.5004L19.2995 72.6385Z" fill="white"/>
<path d="M6.25996 20.9119L13.2155 16.7296L14.7021 14.2654L4.83014 19.9773V31.3237L6.25996 28.8119V20.9119Z" fill="white"/>
<path d="M71.5055 22.4466L64.55 18.2642L63.0633 15.8L72.9353 21.5119V32.8584L71.5055 30.3466V22.4466Z" fill="white"/>
<path d="M6.44037 58.5277L6.3739 50.399L5.00954 47.8647L4.91118 59.2882L14.6671 65.0459L13.2329 62.5366L6.44037 58.5277Z" fill="white"/>
<path d="M70.7352 58.0631L70.8016 49.9344L72.166 47.4001L72.2644 58.8236L62.5085 64.5813L63.9426 62.072L70.7352 58.0631Z" fill="white"/>
<path d="M38.7187 76.7598L31.6206 72.8253L28.7478 72.7716L38.6285 78.4682L48.4248 72.7797L45.5394 72.7992L38.7187 76.7598Z" fill="white"/>
<path d="M38.7494 2.28556L31.6226 6.16745L28.7494 6.19988L38.6719 0.57653L48.426 6.33731L45.5408 6.29651L38.7494 2.28556Z" fill="white"/>
</g>
<defs>
<clipPath id="clip0_1389_2063">
<rect width="76.9744" height="79" fill="white"/>
</clipPath>
</defs>
</svg>
