<svg width="124" height="123" viewBox="0 0 124 123" fill="none" xmlns="http://www.w3.org/2000/svg">
<g clip-path="url(#clip0_1529_7073)">
<path d="M13.0781 0H110.922C118.139 0 124 5.81367 124 12.9727V110.027C124 117.186 118.139 123 110.922 123H13.0781C5.86094 123 0 117.186 0 110.027V12.9727C0 5.81367 5.86094 0 13.0781 0Z" fill="#75171E"/>
<path d="M107.616 44.9498H98.6546C97.8796 44.9498 97.2983 44.3252 97.2983 43.6045V37.2623C97.2983 36.4936 97.928 35.917 98.6546 35.917H107.616C108.391 35.917 108.972 36.5416 108.972 37.2623V43.5564C108.972 44.3252 108.391 44.9498 107.616 44.9498ZM107.325 86.8467H98.9452C98.1702 86.8467 97.589 86.2221 97.589 85.5014V49.4182C97.589 48.6494 98.2186 48.0729 98.9452 48.0729H107.325C108.1 48.0729 108.681 48.6975 108.681 49.4182V85.5494C108.681 86.2701 108.1 86.8467 107.325 86.8467Z" fill="white"/>
<path d="M16.3108 35.917H25.514C26.1921 35.917 26.7733 36.4936 26.7733 37.2143C26.7733 37.2623 26.7733 37.2623 26.7733 37.3104V67.5318C26.7733 75.1232 29.3405 76.949 34.9593 76.949C37.6718 76.949 40.3358 76.8529 42.9999 76.5646V37.2623C42.9515 36.5416 43.5327 35.965 44.2593 35.917H54.7702C54.7702 36.1092 54.7702 36.926 54.7702 37.2143V81.5135C54.7702 84.5404 53.9468 85.3092 51.2343 85.6936C46.2452 86.3182 41.2562 86.7025 36.2187 86.8467C22.8499 86.8467 14.9546 83.1951 14.9546 67.4838V37.2623C15.003 36.5416 15.5358 35.965 16.2624 35.917C16.2624 35.917 16.2624 35.917 16.3108 35.917Z" fill="white"/>
<path d="M89.0641 55.2799V85.5014C89.1125 86.2221 88.5312 86.7986 87.8047 86.8467H86.6906H78.5531C77.875 86.8467 77.2938 86.2701 77.3422 85.5494C77.3422 85.5014 77.3422 85.5014 77.3422 85.4533V55.2799C77.3422 47.6885 74.775 45.8627 69.1562 45.8627H64.5063C63.7313 45.8627 63.1016 45.2381 63.1016 44.4693V35.917H67.8484C81.1203 35.917 89.0641 39.5686 89.0641 55.2799Z" fill="white"/>
</g>
<defs>
<clipPath id="clip0_1529_7073">
<rect width="124" height="123" fill="white"/>
</clipPath>
</defs>
</svg>
